# xmcd
#
# Track frame offsets: 
#        300
#        23467
#        40152
#        61022
#        92755
#        113435
#        133212
#        149386
#        166318
#
# Disc length: 2671 seconds
#
# Revision: 0
# Processed by: cddbd v1.5.2PL0 Copyright (c) Steve Scherf et al.
# Submitted via: ExactAudioCopy v1.0b1
#
DISCID=6d0a6b09
DTITLE=Blindside Blues Band - Blindsided
DYEAR=1994
DGENRE=Blues Rock
TTITLE0=Play The Blues
TTITLE1=Borderline Blues
TTITLE2=Talkin' 'Bout My Baby
TTITLE3=Truth Never Lies
TTITLE4=Climb The Sky
TTITLE5=Higher Ground
TTITLE6=Long Hard Road
TTITLE7=Whole Lotta Nothin'
TTITLE8=Guilty
EXTD=
EXTT0=
EXTT1=
EXTT2=
EXTT3=
EXTT4=
EXTT5=
EXTT6=
EXTT7=
EXTT8=
PLAYORDER=
